Coordinates
version=1
nRows=22
nColumns=24
inDegrees=yes

Units are S.I. units (second, meters, Newtons, ...)
Angles are in degrees.

endheader
time	pelvis_tilt	pelvis_list	pelvis_rotation	pelvis_tx	pelvis_ty	pelvis_tz	hip_flexion_r	hip_adduction_r	hip_rotation_r	knee_angle_r	ankle_angle_r	subtalar_angle_r	mtp_angle_r	hip_flexion_l	hip_adduction_l	hip_rotation_l	knee_angle_l	ankle_angle_l	subtalar_angle_l	mtp_angle_l	lumbar_extension	lumbar_bending	lumbar_rotation
      6.06000000	      5.09986672	     -5.69286912	      2.60122496	     -0.63137198	      0.93087059	      0.24126299	     13.98638383	     10.50478789	     -4.55805117	    -27.56115488	     15.43551742	     -5.75687482	      0.00000000	      2.77412502	     -7.96674293	     -5.36573636	    -66.32265041	    -27.16286855	    -13.89874709	      0.00000000	    -26.82309786	      9.56898442	     -7.91726407
      6.07000000	      4.96375583	     -5.79128157	      2.52734922	     -0.61954451	      0.93242328	      0.24198827	     13.01010580	     10.77959257	     -4.19714938	    -26.98554707	     15.82294201	     -5.80637628	      0.00000000	      4.70885659	     -8.19220331	     -5.29223028	    -67.87082333	    -25.54257905	    -14.28496219	      0.00000000	    -26.70412194	      9.47968877	     -7.47704590
      6.08000000	      4.83961179	     -5.72869208	      2.43496722	     -0.60786205	      0.93436984	      0.24273143	     11.93655205	     10.89252735	     -3.73149348	    -26.26360798	     16.09262253	     -5.89619497	      0.00000000	      6.54596659	     -8.23637761	     -5.29780803	    -69.01326735	    -23.34386935	    -14.43502641	      0.00000000	    -26.60859982	      9.18540742	     -7.06879810
      6.09000000	      4.69436263	     -5.52761631	      2.31730011	     -0.59630969	      0.93661230	      0.24346252	     10.81650276	     10.85295744	     -3.19347369	    -25.41602567	     16.24394036	     -5.99813944	      0.00000000	      8.31162237	     -8.10539444	     -5.35374171	    -69.75802591	    -20.65202692	    -14.28511939	      0.00000000	    -26.49854373	      8.70910439	     -6.69572920
      6.10000000	      4.51304526	     -5.21773260	      2.20527071	     -0.58490483	      0.93905616	      0.24414110	      9.69225734	     10.67447930	     -2.68393302	    -24.46794499	     16.26116484	     -6.12023813	      0.00000000	     10.03475675	     -7.83213080	     -5.43589208	    -70.12282766	    -17.68644619	    -13.90610995	      0.00000000	    -26.35876900	      8.11029656	     -6.34670013
      6.11000000	      4.28267338	     -4.89742767	      2.08953403	     -0.57361802	      0.94158653	      0.24472661	      8.60030426	     10.45022353	     -2.24492023	    -23.44739391	     16.11186299	     -6.20488359	      0.00000000	     11.73433643	     -7.52408915	     -5.54305326	    -70.14280158	    -14.58504455	    -13.37475789	      0.00000000	    -26.17739010	      7.51584328	     -6.00908065
      6.12000000	      4.02965303	     -4.52318740	      1.98704769	     -0.56246346	      0.94417198	      0.24521004	      7.52990992	     10.13432547	     -1.88590884	    -22.39408374	     15.91946907	     -6.21323482	      0.00000000	     13.38244386	     -7.11907246	     -5.63851453	    -69.81913424	    -11.56221168	    -12.74500806	      0.00000000	    -25.98976646	      6.87401398	     -5.70310921
      6.13000000	      3.75457232	     -4.14048418	      1.90892315	     -0.55140829	      0.94675810	      0.24554937	      6.49054251	      9.77236739	     -1.63635132	    -21.32096380	     15.67167116	     -6.13720947	      0.00000000	     14.98284199	     -6.66180686	     -5.69923928	    -69.17117386	     -8.74488075	    -12.08271038	      0.00000000	    -25.79250837	      6.24758788	     -5.40277243
      6.14000000	      3.45717368	     -3.80956740	      1.81986437	     -0.54046927	      0.94928485	      0.24578856	      5.51016164	      9.43090272	     -1.50474242	    -20.27215598	     15.31482708	     -5.95957230	      0.00000000	     16.53120941	     -6.23403182	     -5.75394893	    -68.22096353	     -6.15538206	    -11.42191919	      0.00000000	    -25.59695581	      5.70425799	     -5.12757559
      6.15000000	      3.15451377	     -3.50963853	      1.72885284	     -0.52962079	      0.95173125	      0.24591021	      4.57395480	      9.09209190	     -1.47519764	    -19.26479139	     14.91064518	     -5.68008840	      0.00000000	     18.00709582	     -5.81047830	     -5.78940282	    -66.97513301	     -3.88612126	    -10.80811297	      0.00000000	    -25.41780591	      5.21659967	     -4.86325653
      6.16000000	      2.85969816	     -3.27743017	      1.61573372	     -0.51888910	      0.95403235	      0.24597173	      3.68582725	      8.80387758	     -1.53315868	    -18.32910621	     14.46241615	     -5.32811531	      0.00000000	     19.39477994	     -5.44858971	     -5.81966500	    -65.45785525	     -1.87939137	    -10.23777632	      0.00000000	    -25.28030431	      4.81638672	     -4.56988982
      6.17000000	      2.58110614	     -3.05716480	      1.49635179	     -0.50811737	      0.95623085	      0.24595511	      2.79767856	      8.51186740	     -1.60770684	    -17.42355063	     14.02117672	     -4.88054386	      0.00000000	     20.65763778	     -5.08089333	     -5.82916316	    -63.63818260	     -0.24871782	     -9.74716299	      0.00000000	    -25.15007475	      4.43872608	     -4.27867944
      6.18000000	      2.33372914	     -2.89264656	      1.33625117	     -0.49738856	      0.95824225	      0.24592366	      1.92520198	      8.26858376	     -1.68801508	    -16.59782990	     13.57957001	     -4.38813967	      0.00000000	     21.77964358	     -4.78091960	     -5.85445300	    -61.54804920	      1.15771774	     -9.31654312	      0.00000000	    -25.07581579	      4.12043600	     -3.94228450
      6.19000000	      2.11389302	     -2.75263946	      1.13846647	     -0.48662974	      0.96005978	      0.24589580	      1.05374165	      8.04559954	     -1.72389498	    -15.83224775	     13.15337079	     -3.87180815	      0.00000000	     22.74633681	     -4.51852921	     -5.90021225	    -59.17099971	      2.30946719	     -8.96411310	      0.00000000	    -25.02823546	      3.82094789	     -3.58234978
      6.20000000	      1.87451264	     -2.63595991	      0.93497420	     -0.47587628	      0.96157393	      0.24582626	      0.25074463	      7.84292550	     -1.78621948	    -15.14408590	     12.71045800	     -3.42844596	      0.00000000	     23.61437651	     -4.27646047	     -5.93450704	    -56.51200158	      3.22363535	     -8.73914951	      0.00000000	    -24.95923581	      3.54826122	     -3.21581984
      6.21000000	      1.81832231	     -2.53746634	      0.55178647	     -0.46499204	      0.96306273	      0.24595786	     -0.75134470	      7.65403182	     -1.57975537	    -14.49656211	     12.40042987	     -2.86469437	      0.00000000	     24.09521610	     -4.14707865	     -6.17097190	    -53.54314281	      4.00347175	     -8.57127206	      0.00000000	    -25.09476819	      3.23869233	     -2.66467646
      6.22000000	      1.71728473	     -2.47208660	      0.22490328	     -0.45405723	      0.96417959	      0.24601802	     -1.67935025	      7.49934687	     -1.44971851	    -13.88340501	     12.03601466	     -2.43365823	      0.00000000	     24.51380478	     -4.02961292	     -6.33278068	    -50.31208795	      4.53833430	     -8.46478776	      0.00000000	    -25.15631770	      2.97739382	     -2.17809312
      6.23000000	      1.53155648	     -2.47043135	     -0.12665106	     -0.44305337	      0.96477616	      0.24607583	     -2.48816772	      7.40715782	     -1.25203829	    -13.34135629	     11.77932933	     -2.01113448	      0.00000000	     24.90241090	     -3.98643486	     -6.48428978	    -46.85124004	      4.99752968	     -8.34264284	      0.00000000	    -25.09196875	      2.78629441	     -1.68780551
      6.24000000	      1.33715842	     -2.52088823	     -0.50883568	     -0.43195915	      0.96503627	      0.24617553	     -3.27439083	      7.36502695	     -1.05918750	    -12.83234639	     11.53677966	     -1.60954941	      0.00000000	     25.17032186	     -4.01995356	     -6.65365815	    -43.15524799	      5.29232180	     -8.13497158	      0.00000000	    -25.00064801	      2.64066053	     -1.16179258
      6.25000000	      1.24316892	     -2.65567715	     -0.94453652	     -0.42080991	      0.96504447	      0.24627830	     -4.15519439	      7.39936217	     -0.81340518	    -12.36821445	     11.37622107	     -1.22700115	      0.00000000	     25.19731151	     -4.14943892	     -6.81986343	    -39.24304824	      5.52763873	     -7.90258180	      0.00000000	    -25.02408754	      2.57339602	     -0.48948483
      6.26000000	      1.15242931	     -2.87060559	     -1.36754281	     -0.40954092	      0.96470057	      0.24634824	     -5.04605014	      7.50998725	     -0.60739937	    -11.91139765	     11.23840843	     -0.84954935	      0.00000000	     25.12064993	     -4.35934552	     -6.92835664	    -35.18157194	      5.64003246	     -7.47833312	      0.00000000	    -25.03157408	      2.60331926	      0.16407715
      6.27000000	      1.00761736	     -3.17979033	     -1.81009244	     -0.39815384	      0.96391561	      0.24642316	     -5.87873299	      7.70780181	     -0.43851745	    -11.48428126	     11.16018178	     -0.42817652	      0.00000000	     25.02501062	     -4.68234179	     -7.00877964	    -31.04581105	      5.64997432	     -6.84735899	      0.00000000	    -24.95592717	      2.73429823	      0.85292913
